{"title":"From Dusk Till Dawn S03E04 1080p AMZN WEBRip HEVC DD5.1 x265","uid":15874706,"size":751839414,"categoryP":"video","categoryS":"hd___tv_shows","magnet":"?xt=urn:btih:71b1d3538c6b3bc3deb77c6feb26e0e03c8cd079&amp;dn=From+Dusk+Till+Dawn+S03E04+1080p+AMZN+WEBRip+HEVC+DD5.1+x265&amp;tr=udp%3A%2F%2Ftracker.leechers-paradise.org%3A6969&amp;tr=udp%3A%2F%2Fzer0day.ch%3A1337&amp;tr=udp%3A%2F%2Fopen.demonii.com%3A1337&amp;tr=udp%3A%2F%2Ftracker.coppersurfer.tk%3A6969&amp;tr=udp%3A%2F%2Fexodus.desync.com%3A6969","seeders":0,"leechers":2,"uploader":"nayhtut","files":1,"time":1474485240,"description":"[Screenshots Gallery Link]\r\n\r\n[http://postimg.org/gallery/1b74h0a2k]\r\n\r\n\r\nSource:From Dusk Till Dawn The Series S03E04 Fanglorius 1080p AMZN WEBRip DD5.1 H.264-AG(3.07 GB)\r\n\r\n\r\nComplete name: From.Dusk.Till.Dawn.The.Series.S03E04.Fanglorius.1080p.AMZN.WEBRip.HEVC.DD5.1.x265.mkv\r\nFormat                                   : Matroska\r\nFormat version                           : Version 4 / Version 2\r\nFile size                                : 717 MiB\r\nDuration                                 : 43mn 34s\r\nOverall bit rate                         : 2 300 Kbps\r\nWriting application                      : Lavf57.25.100\r\nWriting library                          : Lavf57.25.100\r\n\r\nVideo\r\n\r\nID                                       : 1\r\nFormat                                   : V_MPEGH/ISO/HEVC\r\nCodec ID                                 : V_MPEGH/ISO/HEVC\r\nDuration                                 : 43mn 34s\r\nBit rate                                 : 1 871 Kbps\r\nWidth                                    : 1 920 pixels\r\nHeight                                   : 1 080 pixels\r\nDisplay aspect ratio                     : 16:9\r\nFrame rate                               : 25.000 fps\r\nBits/(Pixel*Frame)                       : 0.036\r\nStream size                              : 583 MiB (81%)\r\nWriting library                          : Lavc57.48.101 libx265\r\nDefault                                  : Yes\r\nForced                                   : No\r\nDURATION                                 : 00:43:34.531000000\r\n\r\nAudio\r\n\r\nID                                       : 2\r\nFormat                                   : AC-3\r\nFormat/Info                              : Audio Coding 3\r\nMode extension                           : CM (complete main)\r\nFormat settings, Endianness              : Big\r\nCodec ID                                 : A_AC3\r\nDuration                                 : 43mn 34s\r\nBit rate mode                            : Constant\r\nBit rate                                 : 384 Kbps\r\nChannel(s)                               : 6 channels\r\nChannel positions                        : Front: L C R, Side: L R, LFE\r\nSampling rate                            : 48.0 KHz\r\nBit depth                                : 16 bits\r\nCompression mode                         : Lossy\r\nStream size                              : 120 MiB (17%)\r\nWriting library                          : Lavc57.24.102 ac3\r\nDefault                                  : Yes\r\nForced                                   : No\r\nDURATION                                 : 00:43:34.527000000\r\n\r\nText\r\n\r\nID                                       : 3\r\nFormat                                   : ASS\r\nCodec ID                                 : S_TEXT/ASS\r\nWriting library                          : Lavc57.48.101 ssa\r\nLanguage                                 : English\r\nDefault                                  : No","torrent":{"xt":"urn:btih:71b1d3538c6b3bc3deb77c6feb26e0e03c8cd079","amp;dn":"From+Dusk+Till+Dawn+S03E04+1080p+AMZN+WEBRip+HEVC+DD5.1+x265","amp;tr":["udp%3A%2F%2Ftracker.leechers-paradise.org%3A6969","udp%3A%2F%2Fzer0day.ch%3A1337","udp%3A%2F%2Fopen.demonii.com%3A1337","udp%3A%2F%2Ftracker.coppersurfer.tk%3A6969","udp%3A%2F%2Fexodus.desync.com%3A6969"],"infoHash":"71b1d3538c6b3bc3deb77c6feb26e0e03c8cd079","infoHashBuffer":{"type":"Buffer","data":[113,177,211,83,140,107,59,195,222,183,124,111,235,38,224,224,60,140,208,121]},"announce":[],"urlList":[]}}